<svg width="80" height="81" viewBox="0 0 80 81" fill="none" xmlns="http://www.w3.org/2000/svg">
<path fill-rule="evenodd" clip-rule="evenodd" d="M40 0.407013C62.0766 0.407013 80 18.3305 80 40.407C80 62.4836 62.0766 80.407 40 80.407C17.9234 80.407 0 62.4836 0 40.407C0 18.3305 17.9234 0.407013 40 0.407013ZM27.4942 62.8869V31.6492H17.1092V62.8869H27.4942ZM64.9348 62.8869V44.9734C64.9348 35.3783 59.8119 30.9147 52.9803 30.9147C47.4717 30.9147 45.0042 33.9442 43.6227 36.072V31.6492H33.2403C33.378 34.58 33.2403 62.8869 33.2403 62.8869H43.6225V45.4415C43.6225 44.5078 43.6897 43.5744 43.9648 42.907C44.7141 41.0422 46.4238 39.1103 49.2922 39.1103C53.0475 39.1103 54.552 41.9759 54.552 46.1734V62.8869H64.9348ZM22.3719 16.5867C18.8187 16.5867 16.4973 18.9226 16.4973 21.9844C16.4973 24.9815 18.7481 27.3819 22.2344 27.3819H22.3014C25.9225 27.3819 28.1764 24.9815 28.1764 21.9844C28.1092 18.9226 25.9227 16.5867 22.3719 16.5867Z" fill="#B2001B"/>
</svg>
