<svg width="80" height="81" viewBox="0 0 80 81" fill="none" xmlns="http://www.w3.org/2000/svg">
<path d="M49.1808 23.4578H30.8192C29.799 23.4578 28.7889 23.6587 27.8463 24.0491C26.9038 24.4395 26.0474 25.0117 25.3261 25.7331C24.6047 26.4544 24.0325 27.3108 23.6421 28.2534C23.2517 29.1959 23.0508 30.2061 23.0508 31.2262V49.5878C23.0508 51.6481 23.8692 53.624 25.3261 55.0809C26.0475 55.8023 26.9039 56.3745 27.8464 56.7649C28.7889 57.1553 29.7991 57.3562 30.8192 57.3562H49.1808C51.2411 57.3562 53.217 56.5377 54.6738 55.0809C56.1306 53.624 56.9491 51.6481 56.9491 49.5878V31.2262C56.9491 30.2061 56.7482 29.1959 56.3578 28.2534C55.9674 27.3109 55.3952 26.4545 54.6738 25.7331C53.9525 25.0118 53.0961 24.4395 52.1536 24.0491C51.2111 23.6587 50.2009 23.4578 49.1808 23.4578ZM40 51.0931C37.8865 51.0931 35.8204 50.4664 34.0631 49.2922C32.3058 48.118 30.9361 46.449 30.1273 44.4964C29.3185 42.5438 29.1069 40.3952 29.5192 38.3223C29.9316 36.2494 30.9493 34.3453 32.4438 32.8508C33.9383 31.3563 35.8423 30.3386 37.9152 29.9263C39.9881 29.5139 42.1368 29.7255 44.0894 30.5344C46.042 31.3432 47.711 32.7128 48.8852 34.4701C50.0594 36.2275 50.6861 38.2935 50.6861 40.407C50.6861 41.8103 50.4097 43.1999 49.8727 44.4964C49.3356 45.7929 48.5485 46.9709 47.5562 47.9632C46.5639 48.9555 45.3859 49.7427 44.0894 50.2797C42.7929 50.8167 41.4033 51.0931 40 51.0931ZM51.1316 31.9039C50.6287 31.9039 50.1372 31.7548 49.7191 31.4755C49.301 31.1962 48.9751 30.7991 48.7826 30.3346C48.5902 29.87 48.5398 29.3588 48.6379 28.8657C48.736 28.3725 48.9781 27.9195 49.3336 27.5639C49.6892 27.2083 50.1422 26.9662 50.6354 26.8681C51.1285 26.77 51.6397 26.8203 52.1043 27.0127C52.5688 27.2051 52.9659 27.531 53.2453 27.9491C53.5246 28.3672 53.6737 28.8587 53.6737 29.3615C53.6737 30.0358 53.4059 30.6824 52.9292 31.1592C52.4524 31.636 51.8058 31.9038 51.1316 31.9039Z" fill="#B2001B"/>
<path d="M40.0001 33.4609C38.6262 33.4609 37.2833 33.8683 36.141 34.6315C34.9987 35.3948 34.1084 36.4796 33.5827 37.7488C33.057 39.0181 32.9194 40.4147 33.1874 41.7621C33.4554 43.1095 34.117 44.3472 35.0884 45.3186C36.0599 46.2901 37.2975 46.9516 38.6449 47.2196C39.9923 47.4876 41.389 47.3501 42.6582 46.8244C43.9274 46.2986 45.0123 45.4083 45.7755 44.266C46.5388 43.1238 46.9461 41.7808 46.9461 40.407C46.9461 38.5648 46.2143 36.798 44.9117 35.4954C43.609 34.1927 41.8423 33.4609 40.0001 33.4609Z" fill="#B2001B"/>
<path d="M40 0.407013C17.9086 0.407013 0 18.3156 0 40.407C0 62.4984 17.9086 80.407 40 80.407C62.0914 80.407 80 62.4984 80 40.407C80 18.3156 62.0914 0.407013 40 0.407013ZM60.8333 49.2351C60.8332 52.4191 59.5683 55.4726 57.3169 57.7239C55.0655 59.9753 52.0121 61.2402 48.8281 61.2403H31.1719C27.9879 61.2402 24.9344 59.9753 22.683 57.7239C20.4316 55.4726 19.1667 52.4191 19.1666 49.2351V31.5789C19.1667 28.3949 20.4316 25.3414 22.683 23.09C24.9344 20.8387 27.9879 19.5738 31.1719 19.5737H48.8281C52.0121 19.5739 55.0655 20.8387 57.3169 23.0901C59.5683 25.3415 60.8332 28.395 60.8333 31.5789V49.2351Z" fill="#B2001B"/>
</svg>
