<svg width="351" height="28" viewBox="0 0 351 28" fill="none" xmlns="http://www.w3.org/2000/svg">
<path d="M21.672 13.568H29.424L28.68 17.24H20.952L21.672 13.568ZM20.136 23H15.384L18.744 6.2H31.896L31.152 9.872H22.752L20.136 23ZM37.1904 12.704H44.9904L44.2944 16.256H36.4944L37.1904 12.704ZM36.2064 19.328H45.0144L44.2464 23H30.7824L34.1424 6.2H47.2944L46.5504 9.872H38.0784L36.2064 19.328ZM44.8914 23L55.6674 6.2H60.3474L64.4034 23H59.6754L56.6754 8.456H58.5474L49.9074 23H44.8914ZM49.5954 19.736L51.5154 16.232H59.7234L60.2514 19.736H49.5954ZM65.7746 23L69.1346 6.2H76.3106C78.4706 6.2 80.1346 6.672 81.3026 7.616C82.4866 8.56 83.0786 9.872 83.0786 11.552C83.0786 12.96 82.7346 14.192 82.0466 15.248C81.3746 16.288 80.4146 17.096 79.1666 17.672C77.9186 18.248 76.4466 18.536 74.7506 18.536H69.3026L71.8226 16.496L70.5266 23H65.7746ZM76.3106 23L72.8786 16.88H77.7986L81.2786 23H76.3106ZM71.7026 17.048L70.0466 14.864H74.9666C76.0226 14.864 76.8386 14.616 77.4146 14.12C77.9906 13.624 78.2786 12.92 78.2786 12.008C78.2786 11.304 78.0466 10.784 77.5826 10.448C77.1186 10.112 76.4706 9.944 75.6386 9.944H71.0546L73.5986 7.688L71.7026 17.048ZM83.5403 23L86.9003 6.2H91.6523L89.0603 19.232H97.0763L96.3083 23H83.5403ZM104.597 12.704H112.397L111.701 16.256H103.901L104.597 12.704ZM103.613 19.328H112.421L111.653 23H98.1887L101.549 6.2H114.701L113.957 9.872H105.485L103.613 19.328ZM120.578 23.336C119.618 23.336 118.698 23.256 117.818 23.096C116.938 22.952 116.138 22.744 115.418 22.472C114.698 22.184 114.082 21.872 113.57 21.536L115.442 17.984C116.018 18.336 116.61 18.64 117.218 18.896C117.842 19.136 118.474 19.32 119.114 19.448C119.754 19.576 120.394 19.64 121.034 19.64C121.642 19.64 122.162 19.584 122.594 19.472C123.026 19.344 123.354 19.168 123.578 18.944C123.802 18.72 123.914 18.456 123.914 18.152C123.914 17.816 123.762 17.552 123.458 17.36C123.17 17.152 122.786 16.976 122.306 16.832C121.826 16.688 121.29 16.544 120.698 16.4C120.122 16.24 119.538 16.056 118.946 15.848C118.37 15.624 117.842 15.352 117.362 15.032C116.882 14.696 116.49 14.272 116.186 13.76C115.898 13.248 115.754 12.616 115.754 11.864C115.754 10.648 116.082 9.592 116.738 8.696C117.394 7.8 118.322 7.104 119.522 6.608C120.738 6.112 122.17 5.864 123.818 5.864C125.018 5.864 126.138 5.992 127.178 6.248C128.218 6.488 129.114 6.84 129.866 7.304L128.138 10.832C127.482 10.416 126.754 10.104 125.954 9.896C125.17 9.672 124.362 9.56 123.53 9.56C122.89 9.56 122.338 9.632 121.874 9.776C121.426 9.92 121.082 10.12 120.842 10.376C120.618 10.616 120.506 10.888 120.506 11.192C120.506 11.512 120.65 11.776 120.938 11.984C121.226 12.192 121.61 12.368 122.09 12.512C122.586 12.656 123.122 12.808 123.698 12.968C124.29 13.112 124.874 13.288 125.45 13.496C126.026 13.688 126.562 13.952 127.058 14.288C127.554 14.608 127.946 15.016 128.234 15.512C128.522 16.008 128.666 16.624 128.666 17.36C128.666 18.56 128.338 19.608 127.682 20.504C127.026 21.4 126.09 22.096 124.874 22.592C123.658 23.088 122.226 23.336 120.578 23.336ZM136.117 23.336C135.157 23.336 134.237 23.256 133.357 23.096C132.477 22.952 131.677 22.744 130.957 22.472C130.237 22.184 129.621 21.872 129.109 21.536L130.981 17.984C131.557 18.336 132.149 18.64 132.757 18.896C133.381 19.136 134.013 19.32 134.653 19.448C135.293 19.576 135.933 19.64 136.573 19.64C137.181 19.64 137.701 19.584 138.133 19.472C138.565 19.344 138.893 19.168 139.117 18.944C139.341 18.72 139.453 18.456 139.453 18.152C139.453 17.816 139.301 17.552 138.997 17.36C138.709 17.152 138.325 16.976 137.845 16.832C137.365 16.688 136.829 16.544 136.237 16.4C135.661 16.24 135.077 16.056 134.485 15.848C133.909 15.624 133.381 15.352 132.901 15.032C132.421 14.696 132.029 14.272 131.725 13.76C131.437 13.248 131.293 12.616 131.293 11.864C131.293 10.648 131.621 9.592 132.277 8.696C132.933 7.8 133.861 7.104 135.061 6.608C136.277 6.112 137.709 5.864 139.357 5.864C140.557 5.864 141.677 5.992 142.717 6.248C143.757 6.488 144.653 6.84 145.405 7.304L143.677 10.832C143.021 10.416 142.293 10.104 141.493 9.896C140.709 9.672 139.901 9.56 139.069 9.56C138.429 9.56 137.877 9.632 137.413 9.776C136.965 9.92 136.621 10.12 136.381 10.376C136.157 10.616 136.045 10.888 136.045 11.192C136.045 11.512 136.189 11.776 136.477 11.984C136.765 12.192 137.149 12.368 137.629 12.512C138.125 12.656 138.661 12.808 139.237 12.968C139.829 13.112 140.413 13.288 140.989 13.496C141.565 13.688 142.101 13.952 142.597 14.288C143.093 14.608 143.485 15.016 143.773 15.512C144.061 16.008 144.205 16.624 144.205 17.36C144.205 18.56 143.877 19.608 143.221 20.504C142.565 21.4 141.629 22.096 140.413 22.592C139.197 23.088 137.765 23.336 136.117 23.336ZM158.664 13.568H166.416L165.672 17.24H157.944L158.664 13.568ZM157.128 23H152.376L155.736 6.2H168.888L168.144 9.872H159.744L157.128 23ZM165.102 23L175.878 6.2H180.558L184.614 23H179.886L176.886 8.456H178.758L170.118 23H165.102ZM169.806 19.736L171.726 16.232H179.934L180.462 19.736H169.806ZM194.919 23.336C193.207 23.336 191.711 23.024 190.431 22.4C189.167 21.776 188.191 20.912 187.503 19.808C186.815 18.688 186.471 17.4 186.471 15.944C186.471 14.488 186.727 13.144 187.239 11.912C187.751 10.68 188.471 9.616 189.399 8.72C190.327 7.808 191.431 7.104 192.711 6.608C194.007 6.112 195.439 5.864 197.007 5.864C198.559 5.864 199.935 6.136 201.135 6.68C202.335 7.224 203.231 8.008 203.823 9.032L200.391 11.768C200.007 11.128 199.503 10.64 198.879 10.304C198.271 9.968 197.543 9.8 196.695 9.8C195.879 9.8 195.135 9.944 194.463 10.232C193.807 10.52 193.239 10.928 192.759 11.456C192.279 11.984 191.911 12.608 191.655 13.328C191.399 14.032 191.271 14.8 191.271 15.632C191.271 16.384 191.431 17.048 191.751 17.624C192.087 18.184 192.559 18.624 193.167 18.944C193.791 19.248 194.527 19.4 195.375 19.4C196.127 19.4 196.847 19.248 197.535 18.944C198.239 18.64 198.887 18.144 199.479 17.456L202.287 20.216C201.343 21.352 200.255 22.16 199.023 22.64C197.791 23.104 196.423 23.336 194.919 23.336ZM203.47 23L206.83 6.2H211.582L208.222 23H203.47ZM211.603 23L214.963 6.2H219.715L217.123 19.232H225.139L224.371 23H211.603ZM226.251 23L229.611 6.2H234.363L231.003 23H226.251ZM237.936 23L240.552 9.968H235.392L236.16 6.2H251.208L250.44 9.968H245.304L242.688 23H237.936ZM246.759 23L257.535 6.2H262.215L266.271 23H261.543L258.543 8.456H260.415L251.775 23H246.759ZM251.463 19.736L253.383 16.232H261.591L262.119 19.736H251.463ZM270.35 23L272.966 9.968H267.806L268.574 6.2H283.622L282.854 9.968H277.718L275.102 23H270.35ZM290.87 23.336C289.142 23.336 287.654 23.024 286.406 22.4C285.158 21.76 284.198 20.888 283.526 19.784C282.854 18.68 282.518 17.4 282.518 15.944C282.518 14.472 282.774 13.128 283.286 11.912C283.798 10.68 284.518 9.616 285.446 8.72C286.374 7.808 287.478 7.104 288.758 6.608C290.054 6.112 291.47 5.864 293.006 5.864C294.734 5.864 296.222 6.184 297.47 6.824C298.718 7.448 299.678 8.312 300.35 9.416C301.022 10.52 301.358 11.8 301.358 13.256C301.358 14.728 301.102 16.08 300.59 17.312C300.078 18.528 299.358 19.592 298.43 20.504C297.502 21.4 296.39 22.096 295.094 22.592C293.814 23.088 292.406 23.336 290.87 23.336ZM291.278 19.4C292.11 19.4 292.846 19.248 293.486 18.944C294.142 18.64 294.694 18.216 295.142 17.672C295.606 17.112 295.958 16.48 296.198 15.776C296.438 15.072 296.558 14.328 296.558 13.544C296.558 12.792 296.398 12.136 296.078 11.576C295.774 11.016 295.326 10.584 294.734 10.28C294.158 9.96 293.446 9.8 292.598 9.8C291.782 9.8 291.046 9.952 290.39 10.256C289.734 10.56 289.174 10.992 288.71 11.552C288.262 12.096 287.918 12.72 287.678 13.424C287.438 14.128 287.318 14.872 287.318 15.656C287.318 16.392 287.47 17.048 287.774 17.624C288.094 18.184 288.542 18.624 289.118 18.944C289.71 19.248 290.43 19.4 291.278 19.4ZM302.095 23L305.455 6.2H312.631C314.791 6.2 316.455 6.672 317.623 7.616C318.807 8.56 319.399 9.872 319.399 11.552C319.399 12.96 319.055 14.192 318.367 15.248C317.695 16.288 316.735 17.096 315.487 17.672C314.239 18.248 312.767 18.536 311.071 18.536H305.623L308.143 16.496L306.847 23H302.095ZM312.631 23L309.199 16.88H314.119L317.599 23H312.631ZM308.023 17.048L306.367 14.864H311.287C312.343 14.864 313.159 14.616 313.735 14.12C314.311 13.624 314.599 12.92 314.599 12.008C314.599 11.304 314.367 10.784 313.903 10.448C313.439 10.112 312.791 9.944 311.959 9.944H307.375L309.919 7.688L308.023 17.048ZM326.125 23.336C325.165 23.336 324.245 23.256 323.365 23.096C322.485 22.952 321.685 22.744 320.965 22.472C320.245 22.184 319.629 21.872 319.117 21.536L320.989 17.984C321.565 18.336 322.157 18.64 322.765 18.896C323.389 19.136 324.021 19.32 324.661 19.448C325.301 19.576 325.941 19.64 326.581 19.64C327.189 19.64 327.709 19.584 328.141 19.472C328.573 19.344 328.901 19.168 329.125 18.944C329.349 18.72 329.461 18.456 329.461 18.152C329.461 17.816 329.309 17.552 329.005 17.36C328.717 17.152 328.333 16.976 327.853 16.832C327.373 16.688 326.837 16.544 326.245 16.4C325.669 16.24 325.085 16.056 324.493 15.848C323.917 15.624 323.389 15.352 322.909 15.032C322.429 14.696 322.037 14.272 321.733 13.76C321.445 13.248 321.301 12.616 321.301 11.864C321.301 10.648 321.629 9.592 322.285 8.696C322.941 7.8 323.869 7.104 325.069 6.608C326.285 6.112 327.717 5.864 329.365 5.864C330.565 5.864 331.685 5.992 332.725 6.248C333.765 6.488 334.661 6.84 335.413 7.304L333.685 10.832C333.029 10.416 332.301 10.104 331.501 9.896C330.717 9.672 329.909 9.56 329.077 9.56C328.437 9.56 327.885 9.632 327.421 9.776C326.973 9.92 326.629 10.12 326.389 10.376C326.165 10.616 326.053 10.888 326.053 11.192C326.053 11.512 326.197 11.776 326.485 11.984C326.773 12.192 327.157 12.368 327.637 12.512C328.133 12.656 328.669 12.808 329.245 12.968C329.837 13.112 330.421 13.288 330.997 13.496C331.573 13.688 332.109 13.952 332.605 14.288C333.101 14.608 333.493 15.016 333.781 15.512C334.069 16.008 334.213 16.624 334.213 17.36C334.213 18.56 333.885 19.608 333.229 20.504C332.573 21.4 331.637 22.096 330.421 22.592C329.205 23.088 327.773 23.336 326.125 23.336Z" fill="white"/>
<line y1="14" x2="351" y2="14" stroke="white" stroke-width="2"/>
</svg>
