<svg width="206" height="22" viewBox="0 0 206 22" fill="none" xmlns="http://www.w3.org/2000/svg">
<path d="M12.892 8.6396H17.414L16.98 10.7816H12.472L12.892 8.6396ZM11.996 14.1416H9.224L11.184 4.3416H18.856L18.422 6.4836H13.522L11.996 14.1416ZM21.9444 8.1356H26.4944L26.0884 10.2076H21.5384L21.9444 8.1356ZM21.3704 11.9996H26.5084L26.0604 14.1416H18.2064L20.1664 4.3416H27.8384L27.4044 6.4836H22.4624L21.3704 11.9996ZM26.4367 14.1416L32.7227 4.3416H35.4527L37.8187 14.1416H35.0607L33.3107 5.6576H34.4027L29.3627 14.1416H26.4367ZM29.1807 12.2376L30.3007 10.1936H35.0887L35.3967 12.2376H29.1807ZM38.6185 14.1416L40.5785 4.3416H44.7645C46.0245 4.3416 46.9952 4.61693 47.6765 5.1676C48.3672 5.71827 48.7125 6.4836 48.7125 7.4636C48.7125 8.28493 48.5119 9.0036 48.1105 9.6196C47.7185 10.2263 47.1585 10.6976 46.4305 11.0336C45.7025 11.3696 44.8439 11.5376 43.8545 11.5376H40.6765L42.1465 10.3476L41.3905 14.1416H38.6185ZM44.7645 14.1416L42.7625 10.5716H45.6325L47.6625 14.1416H44.7645ZM42.0765 10.6696L41.1105 9.3956H43.9805C44.5965 9.3956 45.0725 9.25093 45.4085 8.9616C45.7445 8.67227 45.9125 8.2616 45.9125 7.7296C45.9125 7.31893 45.7772 7.0156 45.5065 6.8196C45.2359 6.6236 44.8579 6.5256 44.3725 6.5256H41.6985L43.1825 5.2096L42.0765 10.6696ZM48.9818 14.1416L50.9418 4.3416H53.7138L52.2018 11.9436H56.8778L56.4298 14.1416H48.9818ZM61.2647 8.1356H65.8147L65.4087 10.2076H60.8587L61.2647 8.1356ZM60.6907 11.9996H65.8287L65.3807 14.1416H57.5267L59.4867 4.3416H67.1587L66.7247 6.4836H61.7827L60.6907 11.9996ZM70.587 14.3376C70.027 14.3376 69.4903 14.2909 68.977 14.1976C68.4637 14.1136 67.997 13.9923 67.577 13.8336C67.157 13.6656 66.7977 13.4836 66.499 13.2876L67.591 11.2156C67.927 11.4209 68.2723 11.5983 68.627 11.7476C68.991 11.8876 69.3597 11.9949 69.733 12.0696C70.1063 12.1443 70.4797 12.1816 70.853 12.1816C71.2077 12.1816 71.511 12.1489 71.763 12.0836C72.015 12.0089 72.2063 11.9063 72.337 11.7756C72.4677 11.6449 72.533 11.4909 72.533 11.3136C72.533 11.1176 72.4443 10.9636 72.267 10.8516C72.099 10.7303 71.875 10.6276 71.595 10.5436C71.315 10.4596 71.0023 10.3756 70.657 10.2916C70.321 10.1983 69.9803 10.0909 69.635 9.9696C69.299 9.83893 68.991 9.68027 68.711 9.4936C68.431 9.2976 68.2023 9.05027 68.025 8.7516C67.857 8.45293 67.773 8.08427 67.773 7.6456C67.773 6.93627 67.9643 6.32027 68.347 5.7976C68.7297 5.27493 69.271 4.86893 69.971 4.5796C70.6803 4.29027 71.5157 4.1456 72.477 4.1456C73.177 4.1456 73.8303 4.22027 74.437 4.3696C75.0437 4.5096 75.5663 4.71493 76.005 4.9856L74.997 7.0436C74.6143 6.80093 74.1897 6.61893 73.723 6.4976C73.2657 6.36693 72.7943 6.3016 72.309 6.3016C71.9357 6.3016 71.6137 6.3436 71.343 6.4276C71.0817 6.5116 70.881 6.62827 70.741 6.7776C70.6103 6.9176 70.545 7.07627 70.545 7.2536C70.545 7.44027 70.629 7.59427 70.797 7.7156C70.965 7.83693 71.189 7.9396 71.469 8.0236C71.7583 8.1076 72.071 8.19627 72.407 8.2896C72.7523 8.3736 73.093 8.47627 73.429 8.5976C73.765 8.7096 74.0777 8.8636 74.367 9.0596C74.6563 9.24627 74.885 9.48427 75.053 9.7736C75.221 10.0629 75.305 10.4223 75.305 10.8516C75.305 11.5516 75.1137 12.1629 74.731 12.6856C74.3483 13.2083 73.8023 13.6143 73.093 13.9036C72.3837 14.1929 71.5483 14.3376 70.587 14.3376ZM79.6514 14.3376C79.0914 14.3376 78.5548 14.2909 78.0414 14.1976C77.5281 14.1136 77.0614 13.9923 76.6414 13.8336C76.2214 13.6656 75.8621 13.4836 75.5634 13.2876L76.6554 11.2156C76.9914 11.4209 77.3368 11.5983 77.6914 11.7476C78.0554 11.8876 78.4241 11.9949 78.7974 12.0696C79.1708 12.1443 79.5441 12.1816 79.9174 12.1816C80.2721 12.1816 80.5754 12.1489 80.8274 12.0836C81.0794 12.0089 81.2708 11.9063 81.4014 11.7756C81.5321 11.6449 81.5974 11.4909 81.5974 11.3136C81.5974 11.1176 81.5088 10.9636 81.3314 10.8516C81.1634 10.7303 80.9394 10.6276 80.6594 10.5436C80.3794 10.4596 80.0668 10.3756 79.7214 10.2916C79.3854 10.1983 79.0448 10.0909 78.6994 9.9696C78.3634 9.83893 78.0554 9.68027 77.7754 9.4936C77.4954 9.2976 77.2668 9.05027 77.0894 8.7516C76.9214 8.45293 76.8374 8.08427 76.8374 7.6456C76.8374 6.93627 77.0288 6.32027 77.4114 5.7976C77.7941 5.27493 78.3354 4.86893 79.0354 4.5796C79.7448 4.29027 80.5801 4.1456 81.5414 4.1456C82.2414 4.1456 82.8948 4.22027 83.5014 4.3696C84.1081 4.5096 84.6308 4.71493 85.0694 4.9856L84.0614 7.0436C83.6788 6.80093 83.2541 6.61893 82.7874 6.4976C82.3301 6.36693 81.8588 6.3016 81.3734 6.3016C81.0001 6.3016 80.6781 6.3436 80.4074 6.4276C80.1461 6.5116 79.9454 6.62827 79.8054 6.7776C79.6748 6.9176 79.6094 7.07627 79.6094 7.2536C79.6094 7.44027 79.6934 7.59427 79.8614 7.7156C80.0294 7.83693 80.2534 7.9396 80.5334 8.0236C80.8228 8.1076 81.1354 8.19627 81.4714 8.2896C81.8168 8.3736 82.1574 8.47627 82.4934 8.5976C82.8294 8.7096 83.1421 8.8636 83.4314 9.0596C83.7208 9.24627 83.9494 9.48427 84.1174 9.7736C84.2854 10.0629 84.3694 10.4223 84.3694 10.8516C84.3694 11.5516 84.1781 12.1629 83.7954 12.6856C83.4128 13.2083 82.8668 13.6143 82.1574 13.9036C81.4481 14.1929 80.6128 14.3376 79.6514 14.3376ZM92.8041 8.6396H97.3261L96.8921 10.7816H92.3841L92.8041 8.6396ZM91.9081 14.1416H89.1361L91.0961 4.3416H98.7681L98.3341 6.4836H93.4341L91.9081 14.1416ZM96.5597 14.1416L102.846 4.3416H105.576L107.942 14.1416H105.184L103.434 5.6576H104.526L99.4857 14.1416H96.5597ZM99.3037 12.2376L100.424 10.1936H105.212L105.52 12.2376H99.3037ZM113.953 14.3376C112.954 14.3376 112.082 14.1556 111.335 13.7916C110.598 13.4276 110.028 12.9236 109.627 12.2796C109.226 11.6263 109.025 10.8749 109.025 10.0256C109.025 9.17627 109.174 8.39227 109.473 7.6736C109.772 6.95493 110.192 6.33427 110.733 5.8116C111.274 5.2796 111.918 4.86893 112.665 4.5796C113.421 4.29027 114.256 4.1456 115.171 4.1456C116.076 4.1456 116.879 4.30427 117.579 4.6216C118.279 4.93893 118.802 5.39627 119.147 5.9936L117.145 7.5896C116.921 7.21627 116.627 6.9316 116.263 6.7356C115.908 6.5396 115.484 6.4416 114.989 6.4416C114.513 6.4416 114.079 6.5256 113.687 6.6936C113.304 6.8616 112.973 7.0996 112.693 7.4076C112.413 7.7156 112.198 8.0796 112.049 8.4996C111.9 8.91027 111.825 9.35827 111.825 9.8436C111.825 10.2823 111.918 10.6696 112.105 11.0056C112.301 11.3323 112.576 11.5889 112.931 11.7756C113.295 11.9529 113.724 12.0416 114.219 12.0416C114.658 12.0416 115.078 11.9529 115.479 11.7756C115.89 11.5983 116.268 11.3089 116.613 10.9076L118.251 12.5176C117.7 13.1803 117.066 13.6516 116.347 13.9316C115.628 14.2023 114.83 14.3376 113.953 14.3376ZM118.941 14.1416L120.901 4.3416H123.673L121.713 14.1416H118.941ZM123.685 14.1416L125.645 4.3416H128.417L126.905 11.9436H131.581L131.133 14.1416H123.685ZM132.23 14.1416L134.19 4.3416H136.962L135.002 14.1416H132.23ZM139.046 14.1416L140.572 6.5396H137.562L138.01 4.3416H146.788L146.34 6.5396H143.344L141.818 14.1416H139.046ZM144.193 14.1416L150.479 4.3416H153.209L155.575 14.1416H152.817L151.067 5.6576H152.159L147.119 14.1416H144.193ZM146.937 12.2376L148.057 10.1936H152.845L153.153 12.2376H146.937ZM157.954 14.1416L159.48 6.5396H156.47L156.918 4.3416H165.696L165.248 6.5396H162.252L160.726 14.1416H157.954ZM169.924 14.3376C168.916 14.3376 168.048 14.1556 167.32 13.7916C166.592 13.4183 166.032 12.9096 165.64 12.2656C165.248 11.6216 165.052 10.8749 165.052 10.0256C165.052 9.16693 165.202 8.38293 165.5 7.6736C165.799 6.95493 166.219 6.33427 166.76 5.8116C167.302 5.2796 167.946 4.86893 168.692 4.5796C169.448 4.29027 170.274 4.1456 171.17 4.1456C172.178 4.1456 173.046 4.33227 173.774 4.7056C174.502 5.0696 175.062 5.5736 175.454 6.2176C175.846 6.8616 176.042 7.60827 176.042 8.4576C176.042 9.31627 175.893 10.1049 175.594 10.8236C175.296 11.5329 174.876 12.1536 174.334 12.6856C173.793 13.2083 173.144 13.6143 172.388 13.9036C171.642 14.1929 170.82 14.3376 169.924 14.3376ZM170.162 12.0416C170.648 12.0416 171.077 11.9529 171.45 11.7756C171.833 11.5983 172.155 11.3509 172.416 11.0336C172.687 10.7069 172.892 10.3383 173.032 9.9276C173.172 9.51693 173.242 9.08293 173.242 8.6256C173.242 8.18693 173.149 7.80427 172.962 7.4776C172.785 7.15093 172.524 6.89893 172.178 6.7216C171.842 6.53493 171.427 6.4416 170.932 6.4416C170.456 6.4416 170.027 6.53027 169.644 6.7076C169.262 6.88493 168.935 7.13693 168.664 7.4636C168.403 7.78093 168.202 8.14493 168.062 8.5556C167.922 8.96627 167.852 9.40027 167.852 9.8576C167.852 10.2869 167.941 10.6696 168.118 11.0056C168.305 11.3323 168.566 11.5889 168.902 11.7756C169.248 11.9529 169.668 12.0416 170.162 12.0416ZM176.472 14.1416L178.432 4.3416H182.618C183.878 4.3416 184.849 4.61693 185.53 5.1676C186.221 5.71827 186.566 6.4836 186.566 7.4636C186.566 8.28493 186.365 9.0036 185.964 9.6196C185.572 10.2263 185.012 10.6976 184.284 11.0336C183.556 11.3696 182.697 11.5376 181.708 11.5376H178.53L180 10.3476L179.244 14.1416H176.472ZM182.618 14.1416L180.616 10.5716H183.486L185.516 14.1416H182.618ZM179.93 10.6696L178.964 9.3956H181.834C182.45 9.3956 182.926 9.25093 183.262 8.9616C183.598 8.67227 183.766 8.2616 183.766 7.7296C183.766 7.31893 183.631 7.0156 183.36 6.8196C183.089 6.6236 182.711 6.5256 182.226 6.5256H179.552L181.036 5.2096L179.93 10.6696ZM190.489 14.3376C189.929 14.3376 189.393 14.2909 188.879 14.1976C188.366 14.1136 187.899 13.9923 187.479 13.8336C187.059 13.6656 186.7 13.4836 186.401 13.2876L187.493 11.2156C187.829 11.4209 188.175 11.5983 188.529 11.7476C188.893 11.8876 189.262 11.9949 189.635 12.0696C190.009 12.1443 190.382 12.1816 190.755 12.1816C191.11 12.1816 191.413 12.1489 191.665 12.0836C191.917 12.0089 192.109 11.9063 192.239 11.7756C192.37 11.6449 192.435 11.4909 192.435 11.3136C192.435 11.1176 192.347 10.9636 192.169 10.8516C192.001 10.7303 191.777 10.6276 191.497 10.5436C191.217 10.4596 190.905 10.3756 190.559 10.2916C190.223 10.1983 189.883 10.0909 189.537 9.9696C189.201 9.83893 188.893 9.68027 188.613 9.4936C188.333 9.2976 188.105 9.05027 187.927 8.7516C187.759 8.45293 187.675 8.08427 187.675 7.6456C187.675 6.93627 187.867 6.32027 188.249 5.7976C188.632 5.27493 189.173 4.86893 189.873 4.5796C190.583 4.29027 191.418 4.1456 192.379 4.1456C193.079 4.1456 193.733 4.22027 194.339 4.3696C194.946 4.5096 195.469 4.71493 195.907 4.9856L194.899 7.0436C194.517 6.80093 194.092 6.61893 193.625 6.4976C193.168 6.36693 192.697 6.3016 192.211 6.3016C191.838 6.3016 191.516 6.3436 191.245 6.4276C190.984 6.5116 190.783 6.62827 190.643 6.7776C190.513 6.9176 190.447 7.07627 190.447 7.2536C190.447 7.44027 190.531 7.59427 190.699 7.7156C190.867 7.83693 191.091 7.9396 191.371 8.0236C191.661 8.1076 191.973 8.19627 192.309 8.2896C192.655 8.3736 192.995 8.47627 193.331 8.5976C193.667 8.7096 193.98 8.8636 194.269 9.0596C194.559 9.24627 194.787 9.48427 194.955 9.7736C195.123 10.0629 195.207 10.4223 195.207 10.8516C195.207 11.5516 195.016 12.1629 194.633 12.6856C194.251 13.2083 193.705 13.6143 192.995 13.9036C192.286 14.1929 191.451 14.3376 190.489 14.3376Z" fill="white"/>
<line y1="8.6416" x2="206" y2="8.6416" stroke="white"/>
</svg>
