<svg width="60" height="60" viewBox="0 0 60 60" fill="none" xmlns="http://www.w3.org/2000/svg">
<path fill-rule="evenodd" clip-rule="evenodd" d="M30 0C46.5574 0 60 13.4426 60 30C60 46.5574 46.5574 60 30 60C13.4426 60 0 46.5574 0 30C0 13.4426 13.4426 0 30 0ZM20.6207 46.8599V23.4316H12.8319V46.8599H20.6207ZM48.7011 46.8599V33.4248C48.7011 26.2284 44.8589 22.8807 39.7352 22.8807C35.6038 22.8807 33.7532 25.1529 32.717 26.7487V23.4316H24.9302C25.0335 25.6297 24.9302 46.8599 24.9302 46.8599H32.7169V33.7759C32.7169 33.0756 32.7673 32.3755 32.9736 31.875C33.5355 30.4764 34.8178 29.0275 36.9691 29.0275C39.7856 29.0275 40.914 31.1767 40.914 34.3248V46.8599H48.7011ZM16.7789 12.1348C14.1141 12.1348 12.373 13.8867 12.373 16.183C12.373 18.4309 14.0611 20.2311 16.6758 20.2311H16.7261C19.4419 20.2311 21.1323 18.4309 21.1323 16.183C21.0819 13.8867 19.442 12.1348 16.7789 12.1348Z" fill="white"/>
</svg>
