<svg width="60" height="60" viewBox="0 0 60 60" fill="none" xmlns="http://www.w3.org/2000/svg">
<path d="M30.0032 0.00587038C26.0298 -0.0735201 22.0815 0.653063 18.3967 2.14176C14.7119 3.63045 11.367 5.85039 8.56381 8.66755C5.76066 11.4847 3.55744 14.8407 2.08714 18.5329C0.616842 22.2251 -0.0900396 26.1769 0.00916713 30.1499C0.0143755 37.3776 2.61146 44.3639 7.32882 49.8399C12.0462 55.316 18.571 58.9187 25.7183 59.9939V36.6093H17.1486V27.9967H25.7183V19.3841C25.6027 18.2283 25.7445 17.0611 26.1337 15.9665C26.5228 14.872 27.1496 13.8772 27.969 13.0538C28.7883 12.2303 29.78 11.5986 30.8725 11.204C31.9651 10.8094 33.1316 10.6617 34.288 10.7716H42.8578V19.3841H36.7304C36.1217 19.3489 35.5238 19.5553 35.0664 19.9584C34.6091 20.3616 34.3294 20.929 34.288 21.5373V27.9967H42.8578L41.7865 36.6093H34.288V59.9939C41.4425 58.9347 47.9769 55.3366 52.6973 49.857C57.4177 44.3774 60.0088 37.3823 59.9972 30.1499C60.0516 26.1889 59.314 22.257 57.8278 18.585C56.3416 14.9131 54.1367 11.575 51.3426 8.76698C48.5485 5.95892 45.2216 3.73742 41.557 2.23292C37.8925 0.728418 33.9644 -0.0287507 30.0032 0.00587038Z" fill="white"/>
</svg>
